<?xml version="1.0" encoding="utf-8"?>
<!-- Generator: Adobe Illustrator 23.0.1, SVG Export Plug-In . SVG Version: 6.00 Build 0)  -->
<svg version="1.1" id="Layer_1" xmlns="http://www.w3.org/2000/svg" xmlns:xlink="http://www.w3.org/1999/xlink" x="0px" y="0px"
	 viewBox="0 0 1442.6 601.9" style="enable-background:new 0 0 1442.6 601.9;" xml:space="preserve">
<style type="text/css">
	.st0{font-family:'PrivaFour';}
	.st1{font-size:201.8105px;}
	.st2{fill:#FCD200;}
	.st3{fill:#FFFFFF;}
</style>
<g>
	<text transform="matrix(1 0 0 1 517.9886 257.8451)"><tspan x="0" y="0" class="st0 st1">burhan</tspan><tspan x="0" y="178" class="st0 st1">aghazada</tspan></text>
</g>
<g>
	<circle cx="244.4" cy="207.7" r="176.1"/>
	<g>
		<circle class="st2" cx="244.4" cy="395.5" r="191.1"/>
		<path class="st3" d="M244.4,219.5c97.3,0,176.1,78.8,176.1,176.1s-78.8,176.1-176.1,176.1S68.3,492.8,68.3,395.5
			S147.1,219.5,244.4,219.5 M244.4,189.5c-27.8,0-54.8,5.5-80.2,16.2c-24.5,10.4-46.6,25.2-65.5,44.2c-18.9,18.9-33.8,41-44.2,65.5
			c-10.8,25.4-16.2,52.4-16.2,80.2s5.5,54.8,16.2,80.2c10.4,24.5,25.2,46.6,44.2,65.5c18.9,18.9,41,33.8,65.5,44.2
			c25.4,10.8,52.4,16.2,80.2,16.2s54.8-5.5,80.2-16.2c24.5-10.4,46.6-25.2,65.5-44.2c18.9-18.9,33.8-41,44.2-65.5
			c10.8-25.4,16.2-52.4,16.2-80.2s-5.5-54.8-16.2-80.2c-10.4-24.5-25.2-46.6-44.2-65.5c-18.9-18.9-41-33.8-65.5-44.2
			C299.2,194.9,272.2,189.5,244.4,189.5L244.4,189.5z"/>
	</g>
</g>
<path class="st3" d="M244.4,493.9L244.4,493.9c-26.9,0-48.8-21.8-48.8-48.8v-257c0-26.9,21.8-48.8,48.8-48.8h0
	c26.9,0,48.8,21.8,48.8,48.8v257C293.1,472.1,271.3,493.9,244.4,493.9z"/>
</svg>
