<svg id="artwork" height="512" viewBox="0 0 64 64" width="512" xmlns="http://www.w3.org/2000/svg"><path d="m37 63.5h-10a1.49985 1.49985 0 0 1 -1.49658-1.40039l-.29883-4.48535a26.26354 26.26354 0 0 1 -6.50879-2.69926l-3.38574 2.96289a1.50116 1.50116 0 0 1 -2.04834-.06836l-7.0708-7.07129a1.49911 1.49911 0 0 1 -.06836-2.04785l2.96244-3.3857a26.25759 26.25759 0 0 1 -2.69877-6.50879l-4.48584-.29883a1.5003 1.5003 0 0 1 -1.40039-1.49707v-10a1.49985 1.49985 0 0 1 1.40039-1.49658l4.48584-.29883a26.24988 26.24988 0 0 1 2.69877-6.50879l-2.9624-3.38574a1.4997 1.4997 0 0 1 .06836-2.04834l7.0708-7.07129a1.50122 1.50122 0 0 1 2.04834-.06836l3.3857 2.96293a26.24988 26.24988 0 0 1 6.50879-2.69873l.29883-4.48584a1.49985 1.49985 0 0 1 1.49658-1.40043h10a1.5003 1.5003 0 0 1 1.49707 1.40039l.29883 4.48584a26.25759 26.25759 0 0 1 6.50879 2.69877l3.38476-2.96289a1.50029 1.50029 0 0 1 2.04883.06836l7.07129 7.07129a1.5002 1.5002 0 0 1 .06836 2.04834l-2.96293 3.3857a26.26354 26.26354 0 0 1 2.69922 6.50879l4.48535.29883a1.49985 1.49985 0 0 1 1.40043 1.49658v10a1.5003 1.5003 0 0 1 -1.40039 1.49707l-4.48535.29883a26.25582 26.25582 0 0 1 -2.69926 6.50879l2.96289 3.38476a1.50082 1.50082 0 0 1 -.06836 2.04883l-7.07129 7.07129a1.50079 1.50079 0 0 1 -2.04883.06836l-3.38472-2.96293a26.25582 26.25582 0 0 1 -6.50879 2.69922l-.29883 4.48535a1.5003 1.5003 0 0 1 -1.49707 1.40043zm-8.59668-3h7.19336l.27832-4.18457a1.50081 1.50081 0 0 1 1.17676-1.36523 23.31392 23.31392 0 0 0 7.60156-3.15235 1.497 1.497 0 0 1 1.79785.13379l3.15821 2.76465 5.08691-5.08691-2.76465-3.15821a1.50121 1.50121 0 0 1 -.13379-1.79785 23.31392 23.31392 0 0 0 3.15235-7.60156 1.50081 1.50081 0 0 1 1.36523-1.17676l4.18457-.27832v-7.19336l-4.18457-.27881a1.49931 1.49931 0 0 1 -1.36523-1.17578 23.28981 23.28981 0 0 0 -3.15235-7.60254 1.49975 1.49975 0 0 1 .13379-1.79687l2.76465-3.15869-5.08691-5.08643-3.15821 2.76416a1.50368 1.50368 0 0 1 -1.79785.13428 23.27155 23.27155 0 0 0 -7.60254-3.15235 1.502 1.502 0 0 1 -1.17578-1.36572l-.27832-4.18457h-7.19336l-.27881 4.18457a1.50034 1.50034 0 0 1 -1.17578 1.36572 23.29354 23.29354 0 0 0 -7.60254 3.15235 1.49912 1.49912 0 0 1 -1.79687-.13428l-3.15869-2.76416-5.08643 5.08643 2.76416 3.15869a1.50053 1.50053 0 0 1 .13428 1.79687 23.29354 23.29354 0 0 0 -3.15235 7.60254 1.50034 1.50034 0 0 1 -1.36572 1.17578l-4.18457.27881v7.19336l4.18457.27832a1.502 1.502 0 0 1 1.36572 1.17578 23.27155 23.27155 0 0 0 3.15235 7.60254 1.50044 1.50044 0 0 1 -.13428 1.79688l-2.76416 3.15918 5.08643 5.08691 3.15869-2.76465a1.4998 1.4998 0 0 1 1.79687-.13379 23.28981 23.28981 0 0 0 7.60254 3.15235 1.49931 1.49931 0 0 1 1.17578 1.36523z"/><g fill="#3e3ef4"><path d="m22.098 33.554h2.895l-1.441-3.818z"/><path d="m36.541 27.5h-1.8369c.0062 2.303.0018 2.19456.01074 3.7793.66895-.00342 1.40137-.00635 1.82618-.00635a1.88761 1.88761 0 1 0 0-3.773z"/><path d="m32 12.5a19.5 19.5 0 1 0 19.5 19.5 19.522 19.522 0 0 0 -19.5-19.5zm-3.1958 26.90332a1.50061 1.50061 0 0 1 -1.93311-.874l-.74566-1.97559h-5.1695l-.75427 1.98047a1.50018 1.50018 0 0 1 -2.80366-1.06838l4.5063-11.83057a1.77159 1.77159 0 0 1 3.29248-.03564l4.481 11.87109a1.49966 1.49966 0 0 1 -.87358 1.93262zm7.7368-5.13086c-.42829 0-1.16785.00311-1.84082.00653v3.72101a1.5 1.5 0 1 1 -3 0v-12a1.50338 1.50338 0 0 1 1.5-1.5h3.34082a4.88668 4.88668 0 1 1 0 9.77246zm8.6592 5.22754a1.50038 1.50038 0 0 1 -1.5-1.5v-12a1.5 1.5 0 1 1 3 0v12a1.50039 1.50039 0 0 1 -1.5 1.5z"/></g></svg>